<?xml version="1.0" standalone="no"?>
<!DOCTYPE svg PUBLIC "-//W3C//DTD SVG 20010904//EN"
 "http://www.w3.org/TR/2001/REC-SVG-20010904/DTD/svg10.dtd">
<svg version="1.0" xmlns="http://www.w3.org/2000/svg"
 width="320.000000pt" height="320.000000pt" viewBox="0 0 320.000000 320.000000"
 preserveAspectRatio="xMidYMid meet">
<metadata>
Created by potrace 1.14, written by Peter Selinger 2001-2017
</metadata>
<g transform="translate(0.000000,320.000000) scale(0.100000,-0.100000)"
fill="#000000" stroke="none">
<path d="M1530 2947 c-181 -62 -330 -190 -330 -281 0 -14 -10 -37 -22 -51 -21
-24 -26 -25 -56 -14 -81 28 -200 -13 -260 -88 -34 -45 -50 -85 -97 -252 -19
-69 -46 -146 -60 -173 -14 -26 -25 -56 -25 -66 0 -29 29 -61 79 -87 l48 -24
26 -112 c15 -62 26 -113 25 -114 -2 -2 -22 -12 -44 -23 -60 -30 -89 -82 -89
-157 0 -42 7 -72 22 -100 12 -22 27 -57 33 -77 14 -47 26 -56 94 -70 48 -10
60 -10 92 6 20 9 40 13 44 9 4 -4 15 -37 25 -73 24 -90 59 -161 117 -238 l50
-66 -11 -46 c-60 -240 -65 -251 -107 -273 -55 -28 -190 -135 -243 -192 -24
-26 -70 -62 -102 -82 -33 -19 -67 -45 -75 -59 -22 -32 -173 -132 -212 -140
-32 -7 -112 -72 -112 -92 0 -9 129 -12 503 -12 l502 1 -78 40 c-42 22 -98 55
-124 75 -25 19 -59 38 -75 41 -15 3 -31 10 -34 14 -3 5 -19 9 -37 9 l-31 0 39
40 c21 22 47 42 57 46 10 3 18 9 18 14 0 13 -71 53 -134 76 l-59 21 69 55 c38
30 91 69 118 85 l49 31 51 -36 c162 -113 394 -332 476 -450 33 -47 49 -62 67
-62 21 0 23 3 17 23 -4 12 -22 42 -40 66 -19 24 -34 49 -34 56 0 24 263 425
278 425 22 -1 138 -145 154 -192 6 -18 19 -43 30 -54 l19 -21 -88 -49 c-77
-43 -88 -53 -91 -79 -3 -23 3 -35 27 -55 l30 -25 -20 -44 c-11 -24 -18 -46
-16 -48 2 -2 196 -2 431 -1 l427 3 -81 90 c-107 119 -122 128 -236 135 -78 5
-98 10 -131 33 -21 14 -85 46 -142 71 -98 42 -105 46 -133 95 -32 58 -163 201
-183 201 -7 0 -20 -12 -30 -26 -21 -32 -30 -24 -44 44 -16 76 -15 82 22 94
199 69 369 253 421 455 20 77 21 239 1 331 -8 38 -12 85 -9 104 3 19 -3 77
-15 131 -12 53 -21 125 -21 159 1 77 23 207 41 239 13 23 14 22 19 -24 l5 -49
21 24 c76 83 72 184 -13 298 -45 61 -76 91 -307 295 -180 159 -230 198 -301
230 -77 36 -120 38 -195 12z m165 -46 c70 -32 146 -89 305 -229 269 -237 338
-315 353 -398 5 -28 4 -31 -14 -27 -20 6 -53 -17 -69 -48 -13 -24 -50 -165
-50 -191 0 -13 -9 -38 -21 -57 -17 -28 -22 -32 -33 -20 -7 8 -18 34 -25 59
-17 59 -88 170 -111 170 -26 0 -28 -7 -17 -49 7 -27 7 -47 1 -62 -10 -22 -11
-21 -30 17 -24 49 -55 54 -64 9 -4 -17 -11 -39 -17 -49 -9 -16 -12 -15 -30 16
-32 53 -114 139 -162 170 -95 60 -181 9 -124 -72 15 -21 11 -20 -25 8 l-42 34
0 -41 c0 -23 -4 -41 -8 -41 -5 0 -7 13 -4 30 3 20 -7 54 -32 106 -20 42 -33
80 -30 85 10 16 35 10 67 -17 26 -22 32 -23 45 -11 20 21 9 35 -78 107 -158
129 -220 147 -281 83 -38 -40 -97 -134 -122 -194 -38 -93 -26 -166 26 -162 29
2 36 -17 15 -35 -7 -6 -40 -17 -73 -26 -59 -15 -106 -42 -108 -61 0 -5 27 -29
61 -53 58 -41 84 -73 45 -57 -10 4 -65 20 -123 35 -110 28 -185 61 -193 82 -2
7 7 36 21 63 14 28 33 79 43 115 41 154 77 259 97 285 66 84 174 115 255 73
14 -7 26 -1 57 30 31 31 40 48 46 89 5 42 13 58 48 91 22 22 73 59 111 83 129
78 213 96 290 60z m-384 -446 c32 -18 38 -25 23 -25 -26 0 -40 -30 -49 -103
-4 -32 -10 -57 -14 -57 -3 0 -14 14 -23 30 -10 17 -25 33 -34 37 -25 9 -61
-38 -69 -90 -4 -28 -14 -48 -27 -56 -20 -12 -20 -11 -14 24 9 48 88 191 129
233 17 17 32 32 33 32 1 0 22 -11 45 -25z m113 -87 c-3 -5 -7 -8 -8 -6 0 2
-14 18 -31 37 l-30 34 37 -27 c21 -16 35 -33 32 -38z m-47 -51 c-2 -6 -13 -17
-25 -25 -21 -14 -22 -13 -22 25 0 22 3 43 7 47 9 9 45 -33 40 -47z m-157 -69
c0 -5 -7 -8 -15 -8 -17 0 -18 2 -9 25 5 13 8 14 15 3 5 -7 9 -16 9 -20z m225
-47 l28 -69 -22 -35 c-11 -19 -21 -37 -21 -41 0 -14 77 -5 105 13 l30 19 54
-31 c65 -36 128 -42 159 -14 24 22 37 17 56 -21 20 -40 13 -96 -18 -133 -15
-17 -32 -51 -38 -75 -11 -41 -15 -44 -46 -44 -18 0 -42 -4 -52 -10 -15 -8 -20
-4 -30 21 -19 46 -94 106 -150 120 -48 12 -48 12 -42 48 11 68 9 76 -20 79
-33 4 -54 -24 -64 -86 -5 -35 -12 -45 -41 -58 -55 -27 -110 -98 -124 -160 -14
-62 -39 -75 -39 -20 0 56 -31 158 -60 201 -16 23 -47 54 -69 69 -23 16 -41 30
-41 31 0 2 31 12 68 24 82 25 101 43 110 108 6 42 11 50 42 65 19 9 46 17 60
18 29 1 104 33 114 49 12 19 23 4 51 -68z m248 -30 c23 -16 53 -41 66 -55 23
-24 23 -26 5 -26 -24 0 -103 36 -126 57 -22 20 -23 53 -2 53 8 0 34 -13 57
-29z m392 -157 c8 -20 15 -38 15 -40 0 -5 -52 6 -59 12 -4 4 19 64 25 64 2 0
11 -16 19 -36z m-27 -75 c47 -13 46 -12 30 -38 -6 -10 -8 -26 -5 -36 6 -14 14
-15 47 -10 39 7 41 6 56 -31 25 -60 15 -144 -22 -191 -38 -48 -106 -83 -159
-83 -56 0 -139 43 -165 85 -49 80 -40 190 22 252 54 54 121 72 196 52z m-1050
-156 c52 -35 100 -62 108 -59 10 4 14 -4 14 -29 0 -32 -2 -34 -44 -40 -31 -5
-52 -2 -74 9 -17 9 -42 16 -55 16 -44 0 -54 18 -87 145 -17 69 -28 72 138 -42z
m517 68 c190 -86 124 -375 -85 -376 -145 0 -241 150 -181 280 46 101 164 143
266 96z m-468 -16 c36 -22 56 -45 38 -45 -7 0 -105 61 -105 66 0 10 27 2 67
-21z m694 -107 c9 -7 21 -31 27 -53 15 -52 63 -110 115 -137 54 -29 166 -31
213 -6 42 23 91 72 113 115 l17 35 25 -114 c32 -152 33 -284 0 -388 -49 -161
-164 -295 -315 -369 -159 -77 -300 -88 -462 -37 -88 28 -208 101 -260 157 -85
92 -150 228 -175 366 l-13 72 -43 -40 c-38 -35 -48 -39 -93 -39 -55 0 -90 23
-90 59 0 11 -11 41 -25 67 -38 72 -32 148 16 193 30 27 93 44 136 36 26 -5 33
-11 33 -30 0 -21 3 -23 33 -18 29 4 36 1 61 -32 16 -20 31 -48 35 -63 10 -35
39 -41 45 -10 25 130 28 138 45 138 12 0 20 -10 24 -29 9 -43 67 -112 117
-138 38 -21 56 -24 121 -21 63 2 83 8 118 31 57 38 98 105 107 176 9 78 39
109 75 79z m-631 -138 c0 -11 -2 -20 -3 -20 -2 0 -12 9 -22 20 -18 19 -17 20
3 20 15 0 22 -6 22 -20z m212 -789 c20 -12 67 -52 105 -89 101 -100 222 -152
354 -152 33 0 51 -5 55 -14 3 -7 -28 -63 -69 -122 -41 -60 -93 -141 -116 -181
l-41 -72 -63 67 c-83 89 -214 207 -316 282 -60 44 -81 65 -77 78 3 9 17 63 31
119 14 56 30 114 35 129 l11 27 27 -25 c15 -14 44 -35 64 -47z"/>
<path d="M1924 1915 c-49 -34 -56 -126 -14 -185 56 -78 148 4 120 108 -19 71
-66 106 -106 77z"/>
<path d="M1371 1821 c-42 -42 -33 -152 16 -190 32 -26 44 -26 76 -1 47 37 48
124 1 180 -30 35 -65 39 -93 11z"/>
<path d="M829 1571 c-16 -16 -29 -37 -29 -45 0 -20 29 -21 36 -1 15 38 54 -11
54 -66 0 -11 7 -19 16 -19 13 0 15 8 11 43 -2 23 -8 52 -12 65 -6 19 -4 22 19
22 16 0 26 5 26 15 0 11 -12 15 -46 15 -37 0 -51 -5 -75 -29z"/>
<path d="M1707 1499 c-25 -15 -51 -69 -39 -81 13 -13 32 -2 32 17 0 33 80 47
116 20 45 -34 63 -1 18 34 -29 23 -96 28 -127 10z"/>
<path d="M1740 1303 c-49 -34 -67 -149 -31 -194 15 -19 27 -22 70 -21 100 2
122 42 77 137 -36 77 -77 105 -116 78z m75 -80 c14 -31 24 -64 23 -72 -4 -21
-74 -37 -93 -21 -17 15 -19 60 -4 113 15 57 42 50 74 -20z"/>
</g>
</svg>
